<?xml version="1.0" encoding="UTF-8"?>
<svg id="Ebene_2" data-name="Ebene 2" xmlns="http://www.w3.org/2000/svg" xmlns:xlink="http://www.w3.org/1999/xlink" viewBox="0 0 274.71 272.02">
  <defs>
    <style>
      .cls-1 {
        fill: rgb(95, 57, 1);
      }

      .cls-1, .cls-2, .cls-3, .cls-4, .cls-5 {
        fill-rule: evenodd;
        stroke-width: 0px;
      }

      .cls-2 {
        fill: rgb(95, 57, 1);
      }

      .cls-3 {
        fill: rgb(95, 57, 1);
      }

      .cls-4 {
        fill: rgb(95, 57, 1);
      }

      .cls-5 {
        fill: rgb(95, 57, 1);
      }
    </style>
    <linearGradient id="Dégradé_sans_nom_18" data-name="Dégradé sans nom 18" x1=".16" y1="74.45" x2="180.18" y2="289" gradientUnits="userSpaceOnUse">
      <stop offset="0" stop-color="#4d4d4d"/>
      <stop offset="1" stop-color="#1a1a1a"/>
    </linearGradient>
    <linearGradient id="Orange" x1="134.25" y1="-11.56" x2="274.51" y2="155.59" gradientUnits="userSpaceOnUse">
      <stop offset="0" stop-color="#f69453"/>
      <stop offset=".5" stop-color="#f37521"/>
      <stop offset="1" stop-color="#d4622a"/>
    </linearGradient>
    <linearGradient id="Orange-2" data-name="Orange" x1="136.35" y1="49.56" x2="217.61" y2="146.41" xlink:href="#Orange"/>
    <linearGradient id="Dégradé_sans_nom_18-2" data-name="Dégradé sans nom 18" x1="37.09" y1="38.71" x2="89.16" y2="100.77" xlink:href="#Dégradé_sans_nom_18"/>
    <linearGradient id="Dégradé_sans_nom_18-3" data-name="Dégradé sans nom 18" x1="182.47" y1="179.86" x2="234.51" y2="241.88" xlink:href="#Dégradé_sans_nom_18"/>
  </defs>
  <g id="Calque_187_-_copie" data-name="Calque 187 - copie">
    <g id="Calque_4_-_copie" data-name="Calque 4 - copie">
      <g>
        <path class="cls-1" d="m153.31,206.58c-4.08.41-7.45.94-10.83,1.06-6.85.24-12.96-1.88-18.21-6.35-18.36-15.63-35.69-32.31-51.67-50.38-5.61-6.34-7.59-13.8-6.05-22.17.32-1.77.58-3.54.93-5.64-18.74-18.24-37.43-36.44-56.15-54.62-.62-.6-1.48-.97-2.28-1.48-4.4,4.27-6.3,9.57-7.57,15.15-2.47,10.86-1.53,21.67.69,32.43,3.49,16.94,10.77,32.25,20.42,46.46,24.43,35.99,54.92,65.8,91.59,89.24,9.39,6,19.31,11.03,29.83,14.79,10.75,3.84,21.79,6.29,33.22,6.83,7.3.34,14.56-.06,21.59-2.16,4.29-1.28,8.52-2.89,11.88-6.55-.68-.97-1.08-1.77-1.69-2.36-18.68-18.23-37.38-36.43-55.69-54.26Z"/>
        <path class="cls-5" d="m274.67,135.13c-.49-16.59-4.81-32.26-11.95-47.19-10.27-21.48-25.21-39.29-43.33-54.52-19.12-16.07-40.64-27.32-65.44-31.62-9.87-1.71-19.83-2.65-29.82-.8-2.21.41-4.48.94-6.48,1.9-5.31,2.56-8,7.97-7.35,14.14.61,5.75,4.22,10.16,9.96,11.58,2.37.59,4.92.62,7.38.6,2.49-.02,4.96-.54,7.45-.61,12.02-.35,23.43,2.49,34.4,7.14,13.96,5.91,26.21,14.46,37.24,24.78,13.74,12.86,25.13,27.44,32.51,44.92,4.65,11.01,7.34,22.42,6.3,34.46,0,3.63-.18,7.27.04,10.88.39,6.38,4.64,11.27,10.63,12.58,6.67,1.47,13.13-1.47,15.96-7.49.95-2.02,1.72-4.27,1.92-6.48.44-4.74.73-9.53.59-14.28Z"/>
        <path class="cls-4" d="m132.36,80.33c1.68.65,3.47,1.07,5.25,1.38,28.28,4.83,51.05,29.29,55.01,54.68.17,1.12.53,2.21.81,3.31,2.1,8.57,9.95,11.68,15.89,10.77,7.57-1.17,12.23-6.77,12.18-15.66-.16-1.16-.3-3.21-.73-5.2-8.5-38.83-38.8-68.57-78.37-76.16-1.98-.38-4.08-.49-6.1-.32-6.79.56-11.82,5.34-12.9,12.04-1.03,6.39,2.65,12.71,8.96,15.18Z"/>
        <path class="cls-2" d="m77.37,110.67c7.09-6.87,13.46-13.33,20.16-19.43,6.23-5.68,5.47-11.13-.04-16.17-6.87-6.28-13.39-12.95-20.06-19.45-7.16-6.97-14.24-14.03-21.5-20.9-4.77-4.52-9.08-4.63-13.8-.2-7.11,6.67-13.99,13.58-20.95,20.37.48.91.66,1.64,1.11,2.08,18.19,17.77,36.41,35.51,55.07,53.7Z"/>
        <path class="cls-3" d="m241.62,215.36c-7.97-7.75-15.93-15.51-23.9-23.26-5.37-5.22-10.73-10.44-16.11-15.65-1.64-1.59-3.35-3.05-5.75-3.39-3.39-.49-6.21.47-8.66,2.89-5.17,5.1-10.42,10.11-15.63,15.16-1.76,1.71-3.49,3.47-5.19,5.15,3.95,5.15,50.94,50.97,56.69,55.21,2.37-2.26,4.5-4.29,6.61-6.33,4.88-4.74,9.85-9.39,14.59-14.27,4.05-4.17,4.02-8.38.24-12.64-.9-1.01-1.93-1.93-2.9-2.87Z"/>
      </g>
    </g>
  </g>
</svg>