<?xml version="1.0" encoding="UTF-8"?>
<svg id="Ebene_2" data-name="Ebene 2" xmlns="http://www.w3.org/2000/svg" viewBox="0 0 199.08911 192.114731">
  <defs>
    <style>
      .cls-1 {
        fill: #b34512;
      }

      .cls-1, .cls-2 {
        stroke-width: 0px;
      }

      .cls-2 {
        fill: #808080;
      }
    </style>
  </defs>
  <g id="Layer_1" data-name="Layer 1">
    <path class="cls-2" d="m167.273783,95.942716l-14.98734-27.286624-12.68145-22.242038-15.33941.197685v-24.747165h52.959079v148.003544h-69.296996v21.864447s76.364702,0,76.364702,0c8.172105,0,14.796742-6.624888,14.796742-14.796994V14.79649C199.08911,6.624888,192.464474,0,184.292368,0h-77.28835v28.948516h-.016615v39.540117l23.65101.167459,14.616183,27.209939-14.616183,27.400145h-22.665685v21.860063h25.845019l8.424188-.266326"/>
    <path class="cls-1" d="m31.815327,96.172015l14.98734,27.286624,12.68145,22.242038,15.33941-.197685v24.747165H21.864447V22.246613h69.296996V.382166H14.796742C6.624637.382166,0,7.007054,0,15.179159v162.139081c0,8.171602,6.624637,14.79649,14.796742,14.79649h77.28835v-28.948516h.016615v-39.540117l-23.65101-.167459-14.616183-27.209939,14.616183-27.400145h22.665685v-21.860063h-25.845019l-8.424188.266326"/>
  </g>
</svg>